mtllib 0SDH1EXNBCW6GNK2KKLMS6ZKO.mtl
v 0.589277 -0.699499 -0.588223
v 0.589277 -0.699499 -0.549642
v 0.017709 -0.699499 -0.588223
v 0.017709 -0.699499 -0.549642
v 0.017709 -0.440223 -0.549642
v 0.589277 -0.440223 -0.549642
v 0.017709 -0.440223 -0.588223
v 0.589277 -0.440223 -0.588223
v 0.017709 -0.699499 -0.549642
v 0.017709 -0.440223 -0.549642
v 0.017709 -0.699499 -0.588223
v 0.017709 -0.440223 -0.588223
v 0.589277 -0.699499 -0.549642
v 0.589277 -0.440223 -0.549642
v 0.017709 -0.699499 -0.549642
v 0.017709 -0.440223 -0.549642
v 0.589277 -0.699499 -0.588223
v 0.589277 -0.440223 -0.588223
v 0.589277 -0.699499 -0.549642
v 0.589277 -0.440223 -0.549642
v 0.017709 -0.699499 -0.588223
v 0.017709 -0.440223 -0.588223
v 0.589277 -0.699499 -0.588223
v 0.589277 -0.440223 -0.588223
v -1.206033 0.481269 -0.551945
v -1.206033 -0.700183 -0.551945
v -1.206033 0.481269 0.551945
v -1.206033 -0.700183 0.551945
v -1.206033 0.481269 0.551945
v -1.206033 -0.700183 0.551945
v 1.206033 0.481269 0.551945
v 1.206033 -0.700183 0.551945
v 1.206033 0.481269 0.551945
v 1.206033 -0.700183 0.551945
v 1.206033 0.481269 -0.551945
v 1.206033 -0.700183 -0.551945
v 1.206033 0.481269 -0.551945
v 1.206033 -0.700183 -0.551945
v -1.206033 0.481269 -0.551945
v -1.206033 -0.700183 -0.551945
v -1.250000 0.513422 0.589375
v -1.250000 0.513422 -0.589375
v 1.250000 0.513422 0.589375
v 1.250000 0.513422 -0.589375
v 0.737054 0.695395 -0.071692
v -0.737054 0.695395 -0.071692
v 0.737054 0.695395 0.071692
v -0.737054 0.695395 0.071692
v -0.737054 0.695395 -0.071692
v -1.250000 0.513422 -0.589375
v -0.737054 0.695395 0.071692
v -1.250000 0.513422 0.589375
v -0.737054 0.695395 0.071692
v -1.250000 0.513422 0.589375
v 0.737054 0.695395 0.071692
v 1.250000 0.513422 0.589375
v 0.737054 0.695395 0.071692
v 1.250000 0.513422 0.589375
v 0.737054 0.695395 -0.071692
v 1.250000 0.513422 -0.589375
v 0.737054 0.695395 -0.071692
v 1.250000 0.513422 -0.589375
v -0.737054 0.695395 -0.071692
v -1.250000 0.513422 -0.589375
v -1.230459 0.481269 0.563462
v -1.230459 0.481269 -0.563462
v 1.230459 0.481269 0.563462
v 1.230459 0.481269 -0.563462
v 1.230459 0.513422 -0.563462
v -1.230459 0.513422 -0.563462
v 1.230459 0.513422 0.563462
v -1.230459 0.513422 0.563462
v -1.230459 0.513422 -0.563462
v -1.230459 0.481269 -0.563462
v -1.230459 0.513422 0.563462
v -1.230459 0.481269 0.563462
v -1.230459 0.513422 0.563462
v -1.230459 0.481269 0.563462
v 1.230459 0.513422 0.563462
v 1.230459 0.481269 0.563462
v 1.230459 0.513422 0.563462
v 1.230459 0.481269 0.563462
v 1.230459 0.513422 -0.563462
v 1.230459 0.481269 -0.563462
v 1.230459 0.513422 -0.563462
v 1.230459 0.481269 -0.563462
v -1.230459 0.513422 -0.563462
v -1.230459 0.481269 -0.563462
v -0.032364 0.700183 -0.402802
v -0.032364 0.562678 -0.402802
v -0.032364 0.700183 -0.275541
v -0.032364 0.562678 -0.275541
v -0.032364 0.700183 -0.275541
v -0.032364 0.562678 -0.275541
v 0.011602 0.700183 -0.275541
v 0.011602 0.562678 -0.275541
v 0.011602 0.700183 -0.275541
v 0.011602 0.562678 -0.275541
v 0.011602 0.700183 -0.402802
v 0.011602 0.562678 -0.402802
v 0.011602 0.700183 -0.402802
v 0.011602 0.562678 -0.402802
v -0.032364 0.700183 -0.402802
v -0.032364 0.562678 -0.402802
v 0.592941 0.700183 -0.402802
v 0.592941 0.562678 -0.402802
v 0.592941 0.700183 -0.275541
v 0.592941 0.562678 -0.275541
v 0.592941 0.700183 -0.275541
v 0.592941 0.562678 -0.275541
v 0.636908 0.700183 -0.275541
v 0.636908 0.562678 -0.275541
v 0.636908 0.700183 -0.275541
v 0.636908 0.562678 -0.275541
v 0.636908 0.700183 -0.402802
v 0.636908 0.562678 -0.402802
v 0.636908 0.700183 -0.402802
v 0.636908 0.562678 -0.402802
v 0.592941 0.700183 -0.402802
v 0.592941 0.562678 -0.402802
v -0.655227 0.700183 -0.402802
v -0.655227 0.562678 -0.402802
v -0.655227 0.700183 -0.275541
v -0.655227 0.562678 -0.275541
v -0.655227 0.700183 -0.275541
v -0.655227 0.562678 -0.275541
v -0.612482 0.700183 -0.275541
v -0.612482 0.562678 -0.275541
v -0.612482 0.700183 -0.275541
v -0.612482 0.562678 -0.275541
v -0.612482 0.700183 -0.402802
v -0.612482 0.562678 -0.402802
v -0.612482 0.700183 -0.402802
v -0.612482 0.562678 -0.402802
v -0.655227 0.700183 -0.402802
v -0.655227 0.562678 -0.402802
# num_vertices: 136

vt 0.180195 0.000981
vt 0.193357 0.000981
vt 0.180195 0.118615
vt 0.193357 0.118615
vt 0.180195 0.118615
vt 0.180195 0.000981
vt 0.193357 0.118615
vt 0.193357 0.000981
vt 0.291345 0.000494
vt 0.291345 0.140047
vt 0.284398 0.000494
vt 0.284398 0.140047
vt 0.341923 0.000494
vt 0.341923 0.143091
vt 0.180195 0.000494
vt 0.180195 0.143091
vt 0.291345 0.000494
vt 0.291345 0.140047
vt 0.284398 0.000494
vt 0.284398 0.140047
vt 0.341923 0.000494
vt 0.341923 0.143091
vt 0.180195 0.000494
vt 0.180195 0.143091
vt 0.999438 0.649306
vt 0.999438 0.001590
vt 0.700845 0.649306
vt 0.700845 0.001590
vt 0.002988 0.649671
vt 0.002988 0.000859
vt 0.695604 0.649671
vt 0.695604 0.000859
vt 0.999438 0.649306
vt 0.999438 0.001590
vt 0.700845 0.649306
vt 0.700845 0.001590
vt 0.002988 0.649671
vt 0.002988 0.000859
vt 0.695604 0.649671
vt 0.695604 0.000859
vt 0.755567 0.670007
vt 0.079526 0.670007
vt 0.755567 0.670007
vt 0.079526 0.670007
vt 0.376535 0.997336
vt 0.376535 0.997336
vt 0.458557 0.997336
vt 0.458557 0.997336
vt 0.376535 0.997336
vt 0.079526 0.670007
vt 0.458557 0.997336
vt 0.755567 0.670007
vt 0.205545 0.997945
vt 0.001770 0.670129
vt 0.791520 0.997945
vt 0.995295 0.670129
vt 0.376535 0.997336
vt 0.079526 0.670007
vt 0.458557 0.997336
vt 0.755688 0.670007
vt 0.206032 0.997458
vt 0.002257 0.669642
vt 0.792007 0.997458
vt 0.995782 0.669642
vt 0.998585 0.255001
vt 0.998585 0.660631
vt 0.001160 0.255001
vt 0.001160 0.660631
vt 0.001160 0.255001
vt 0.998585 0.255001
vt 0.001160 0.660631
vt 0.998585 0.660631
vt 0.004207 0.657708
vt 0.004207 0.665989
vt 0.345945 0.657708
vt 0.345945 0.665989
vt 0.003963 0.657465
vt 0.003963 0.665989
vt 0.997367 0.657465
vt 0.997367 0.665989
vt 0.004207 0.657708
vt 0.004207 0.665989
vt 0.345945 0.657708
vt 0.345945 0.665989
vt 0.003963 0.657465
vt 0.003963 0.665989
vt 0.997367 0.657465
vt 0.997367 0.665989
vt 0.831495 0.666598
vt 0.831495 0.607537
vt 0.861476 0.666598
vt 0.861476 0.607537
vt 0.831495 0.666598
vt 0.831495 0.607537
vt 0.861476 0.666598
vt 0.861476 0.607537
vt 0.831495 0.666598
vt 0.831495 0.607537
vt 0.861476 0.666598
vt 0.861476 0.607537
vt 0.831495 0.666598
vt 0.831495 0.607537
vt 0.861476 0.666598
vt 0.861476 0.607537
vt 0.831495 0.666598
vt 0.831495 0.607537
vt 0.861476 0.666598
vt 0.861476 0.607537
vt 0.831495 0.666598
vt 0.831495 0.607537
vt 0.861476 0.666598
vt 0.861476 0.607537
vt 0.831495 0.666598
vt 0.831495 0.607537
vt 0.861476 0.666598
vt 0.861476 0.607537
vt 0.831495 0.666598
vt 0.831495 0.607537
vt 0.861476 0.666598
vt 0.861476 0.607537
vt 0.831495 0.666598
vt 0.831495 0.607537
vt 0.861476 0.666598
vt 0.861476 0.607537
vt 0.831495 0.666598
vt 0.831495 0.607537
vt 0.861476 0.666598
vt 0.861476 0.607537
vt 0.831495 0.666598
vt 0.831495 0.607537
vt 0.861476 0.666598
vt 0.861476 0.607537
vt 0.831495 0.666598
vt 0.831495 0.607537
vt 0.861476 0.666598
vt 0.861476 0.607537
# num_vertices: 136


g Object_TexMap_0

usemtl TexMap

f 1/1 2/2 3/3
f 2/2 4/4 3/3
f 5/5 6/6 7/7
f 6/6 8/8 7/7
f 9/9 10/10 11/11
f 10/10 12/12 11/11
f 13/13 14/14 15/15
f 14/14 16/16 15/15
f 17/17 18/18 19/19
f 18/18 20/20 19/19
f 21/21 22/22 23/23
f 22/22 24/24 23/23
f 25/25 26/26 27/27
f 26/26 28/28 27/27
f 29/29 30/30 31/31
f 30/30 32/32 31/31
f 33/33 34/34 35/35
f 34/34 36/36 35/35
f 37/37 38/38 39/39
f 38/38 40/40 39/39
f 41/41 42/42 43/43
f 42/42 44/44 43/43
f 45/45 46/46 47/47
f 46/46 48/48 47/47
f 49/49 50/50 51/51
f 50/50 52/52 51/51
f 53/53 54/54 55/55
f 54/54 56/56 55/55
f 57/57 58/58 59/59
f 58/58 60/60 59/59
f 61/61 62/62 63/63
f 62/62 64/64 63/63
f 65/65 66/66 67/67
f 66/66 68/68 67/67
f 69/69 70/70 71/71
f 70/70 72/72 71/71
f 73/73 74/74 75/75
f 74/74 76/76 75/75
f 77/77 78/78 79/79
f 78/78 80/80 79/79
f 81/81 82/82 83/83
f 82/82 84/84 83/83
f 85/85 86/86 87/87
f 86/86 88/88 87/87
f 89/89 90/90 91/91
f 90/90 92/92 91/91
f 93/93 94/94 95/95
f 94/94 96/96 95/95
f 97/97 98/98 99/99
f 98/98 100/100 99/99
f 101/101 102/102 103/103
f 102/102 104/104 103/103
f 105/105 106/106 107/107
f 106/106 108/108 107/107
f 109/109 110/110 111/111
f 110/110 112/112 111/111
f 113/113 114/114 115/115
f 114/114 116/116 115/115
f 117/117 118/118 119/119
f 118/118 120/120 119/119
f 121/121 122/122 123/123
f 122/122 124/124 123/123
f 125/125 126/126 127/127
f 126/126 128/128 127/127
f 129/129 130/130 131/131
f 130/130 132/132 131/131
f 133/133 134/134 135/135
f 134/134 136/136 135/135
# num_faces: 68
