# Wavefront Obj file
# 
# verts: 228 uv-s: 598
mtllib dom3_fin.mtl

g kozirek_Cylinder.005

v 0.392897 1.374386 1.379777
v -0.407104 1.374386 1.379778
v -0.407104 1.454386 1.379778
v 0.392896 1.454386 1.379777
v -0.407104 1.529423 1.367015
v 0.392896 1.529423 1.367015
v -0.407104 1.598578 1.330051
v 0.392896 1.598578 1.330051
v -0.407104 1.659192 1.280306
v 0.392896 1.659192 1.280306
v -0.407104 1.708938 1.219692
v 0.392896 1.708937 1.219691
v -0.407104 1.745901 1.150537
v 0.392896 1.745901 1.150537
v -0.407104 1.768664 1.075499
v 0.392896 1.768664 1.075499
v -0.407104 1.776350 0.997463
v 0.392896 1.776349 0.997463
v -0.407104 1.376350 0.997463
v 0.392896 1.376349 0.997463
v 0.392896 1.378664 1.075499
v 0.392896 1.375901 1.150537
v 0.392896 1.368937 1.219691
v 0.392896 1.369192 1.280306
v 0.392896 1.368578 1.330051
v 0.392897 1.369423 1.367015
v -0.407104 1.378664 1.075499
v -0.407104 1.375901 1.150537
v -0.407104 1.368937 1.219692
v -0.407104 1.369192 1.280306
v -0.407104 1.368578 1.330051
v -0.407104 1.369423 1.367015
# 32 positions

vt 0.148356 0.662008
vt 0.148356 0.753474
vt 0.139209 0.753474
vt 0.139209 0.662008
vt 0.157058 0.662008
vt 0.157058 0.753474
vt 0.166023 0.662008
vt 0.166023 0.753474
vt 0.174988 0.662008
vt 0.174988 0.753474
vt 0.886553 0.210771
vt 0.886553 0.119305
vt 0.895518 0.119305
vt 0.895518 0.210771
vt 0.904483 0.119305
vt 0.904483 0.210771
vt 0.913449 0.119305
vt 0.913449 0.210771
vt 0.922414 0.119304
vt 0.922414 0.210771
vt 0.508446 0.546185
vt 0.526739 0.546185
vt 0.526836 0.550411
vt 0.500539 0.550411
vt 0.526765 0.556099
vt 0.493609 0.556099
vt 0.526795 0.563029
vt 0.487922 0.563029
vt 0.525999 0.570936
vt 0.483695 0.570936
vt 0.525683 0.579515
vt 0.481093 0.579515
vt 0.525947 0.588437
vt 0.480214 0.588437
vt 0.526172 0.544726
vt 0.517025 0.544726
vt 0.165885 0.575514
vt 0.121296 0.575514
vt 0.120417 0.566592
vt 0.166150 0.566592
vt 0.166201 0.584094
vt 0.123898 0.584094
vt 0.166998 0.592000
vt 0.128124 0.592000
vt 0.166968 0.598930
vt 0.133812 0.598930
vt 0.167039 0.604618
vt 0.140742 0.604618
vt 0.166942 0.608844
vt 0.148649 0.608844
vt 0.166375 0.610303
vt 0.157228 0.610303
vt 0.867768 0.568606
vt 0.867768 0.477140
vt 0.876694 0.477140
vt 0.876694 0.568606
vt 0.859183 0.568606
vt 0.859183 0.477140
vt 0.851236 0.568606
vt 0.851236 0.477140
vt 0.844306 0.568606
vt 0.844306 0.477140
vt 0.838618 0.568606
vt 0.838618 0.477140
vt 0.834390 0.568606
vt 0.834390 0.477140
vt 0.832825 0.477140
vt 0.832825 0.568606
# 68 texture coordinates

vn 0.000001 0.000000 1.000000
vn 0.000001 0.167675 0.985842
vn 0.000000 0.471395 0.881922
vn 0.000000 0.634397 0.773008
vn 0.000001 0.773006 0.634398
vn 0.000001 0.881923 0.471393
vn 0.000000 0.956938 0.290292
vn 0.000001 0.995185 0.098011
vn 1.000000 0.000002 0.000002
vn -1.000000 0.000000 0.000000
vn -0.000001 -0.999560 0.029646
vn 0.000000 -0.999323 -0.036797
vn -0.000000 -0.994968 -0.100195
vn 0.000000 -0.999991 0.004207
vn 0.000000 -0.999924 -0.012341
vn 0.000000 -0.999739 0.022853
vn 0.000000 -0.932009 0.362435
# 17 normals

usemtl None
f 4/1/1 3/2/1 2/3/1 1/4/1
f 3/2/2 4/1/2 6/5/2 5/6/2
f 5/6/3 6/5/3 8/7/3 7/8/3
f 7/8/4 8/7/4 10/9/4 9/10/4
f 9/11/5 10/12/5 12/13/5 11/14/5
f 11/14/6 12/13/6 14/15/6 13/16/6
f 13/16/7 14/15/7 16/17/7 15/18/7
f 15/18/8 16/17/8 18/19/8 17/20/8
f 6/21/9 26/22/9 25/23/9 8/24/9
f 25/23/9 24/25/9 10/26/9 8/24/9
f 24/25/9 23/27/9 12/28/9 10/26/9
f 23/27/9 22/29/9 14/30/9 12/28/9
f 22/29/9 21/31/9 16/32/9 14/30/9
f 16/32/9 21/31/9 20/33/9 18/34/9
f 1/35/9 26/22/9 6/21/9 4/36/9
f 27/37/10 15/38/10 17/39/10 19/40/10
f 28/41/10 13/42/10 15/38/10 27/37/10
f 29/43/10 11/44/10 13/42/10 28/41/10
f 30/45/10 9/46/10 11/44/10 29/43/10
f 31/47/10 7/48/10 9/46/10 30/45/10
f 32/49/10 5/50/10 7/48/10 31/47/10
f 2/51/10 3/52/10 5/50/10 32/49/10
f 21/53/11 27/54/11 19/55/11 20/56/11
f 22/57/12 28/58/12 27/54/12 21/53/12
f 23/59/13 29/60/13 28/58/13 22/57/13
f 24/61/14 30/62/14 29/60/14 23/59/14
f 25/63/15 31/64/15 30/62/15 24/61/15
f 26/65/16 32/66/16 31/64/16 25/63/16
f 2/67/17 32/66/17 26/65/17 1/68/17

g ruchka_Cylinder.004

v 0.119128 0.708909 1.037409
v 0.119128 0.708909 0.967409
v 0.143877 0.719160 1.037409
v 0.143877 0.719160 0.967409
v 0.154128 0.743909 1.037409
v 0.154128 0.743909 0.967409
v 0.143877 0.768658 1.037409
v 0.143877 0.768658 0.967409
v 0.119128 0.778909 1.037409
v 0.119128 0.778909 0.967409
v 0.094380 0.768658 1.037409
v 0.094380 0.768658 0.967409
v 0.084128 0.743909 1.037409
v 0.084128 0.743909 0.967409
v 0.094380 0.719160 1.037409
v 0.094380 0.719160 0.967409
# 16 positions

vt 0.209696 0.532799
vt 0.212759 0.532799
vt 0.212759 0.540802
vt 0.209696 0.540802
vt 0.166987 0.654219
vt 0.166987 0.651156
vt 0.174990 0.651156
vt 0.174990 0.654219
vt 0.166987 0.648093
vt 0.174990 0.648093
vt 0.129322 0.604199
vt 0.129322 0.607262
vt 0.121318 0.607262
vt 0.121318 0.604199
vt 0.182993 0.567667
vt 0.182993 0.570730
vt 0.174990 0.570730
vt 0.174990 0.567667
vt 0.206633 0.532799
vt 0.206633 0.540802
vt 0.210593 0.548702
vt 0.212759 0.550867
vt 0.212759 0.553930
vt 0.210593 0.556096
vt 0.207531 0.556096
vt 0.205365 0.553930
vt 0.205365 0.550867
vt 0.207531 0.548702
vt 0.129322 0.610325
vt 0.121318 0.610325
vt 0.182993 0.564604
vt 0.174990 0.564604
# 32 texture coordinates

vn -0.000007 -1.000000 0.000000
vn 0.707107 -0.707107 0.000000
vn 0.479840 -0.479840 0.734511
vn -0.000005 -0.678599 0.734509
vn 1.000000 0.000000 0.000000
vn 0.879466 0.000000 0.475961
vn 0.707106 0.707107 0.000000
vn 0.621875 0.621876 0.475965
vn -0.000007 1.000000 0.000000
vn -0.000005 0.678599 0.734509
vn -1.000000 0.000000 0.000000
vn -0.707101 -0.707113 0.000000
vn -0.621871 -0.621882 0.475961
vn -0.879464 0.000000 0.475966
vn -0.479838 0.479847 0.734508
vn -0.707100 0.707114 0.000000
# 16 normals

usemtl None
f 34/69/18 36/70/19 35/71/20 33/72/21
f 36/73/19 38/74/22 37/75/23 35/76/20
f 38/74/22 40/77/24 39/78/25 37/75/23
f 40/79/24 42/80/26 41/81/27 39/82/25
f 46/83/28 48/84/29 47/85/30 45/86/31
f 48/87/29 34/69/18 33/72/21 47/88/30
f 43/89/32 45/90/31 47/91/30 33/92/21
f 35/93/20 37/94/23 39/95/25 41/96/27
f 42/80/26 44/97/33 43/98/32 41/81/27
f 33/92/21 35/93/20 41/96/27 43/89/32
f 44/99/33 46/83/28 45/86/31 43/100/32

g Plane_Plane.002

v -0.273358 0.207260 1.002737
v 0.266642 0.207260 1.002737
v -0.273358 1.327260 1.002737
v 0.266642 1.327260 1.002737
# 4 positions

vt 0.779173 0.824179
vt 0.840913 0.824179
vt 0.840913 0.952231
vt 0.779173 0.952231
# 4 texture coordinates

vn 0.000000 0.000000 1.000000
# 1 normals

usemtl Material.015
f 49/101/34 50/102/34 52/103/34 51/104/34

g steklo1_Plane

v 1.002684 1.329567 0.330674
v 1.002684 0.681567 0.330674
v 1.002683 1.329567 -0.317326
v 1.002684 0.681567 -0.317326
# 4 positions

vt 0.906511 0.576531
vt 0.906511 0.650619
vt 0.832424 0.650619
vt 0.832424 0.576531
# 4 texture coordinates

vn 1.000000 0.000001 -0.000001
# 1 normals

usemtl None
f 53/105/35 54/106/35 56/107/35 55/108/35

g dom1_Cube.001

v -1.000604 0.004887 1.000834
v -1.000604 1.855780 1.000834
v -1.000604 0.004887 -0.999166
v -1.000604 1.855780 -0.999166
v 0.999396 0.004887 1.000834
v 0.999396 1.855780 1.000834
v 0.999396 0.004887 -0.999166
v 0.999396 1.855780 -0.999166
# 8 positions

vt 0.592499 0.067647
vt 0.592499 0.279265
vt 0.363834 0.279265
vt 0.363834 0.067647
vt 0.825010 0.731582
vt 0.613392 0.731582
vt 0.613392 0.502916
vt 0.825010 0.502916
vt 0.613392 0.266365
vt 0.825010 0.266365
vt 0.825010 0.495030
vt 0.613392 0.495030
vt 0.127217 0.279265
vt 0.127217 0.067647
vt 0.355882 0.067647
vt 0.355882 0.279265
vt 0.238665 0.761334
vt 0.238665 0.990000
vt 0.010000 0.990000
vt 0.010000 0.761334
vt 0.244499 0.757489
vt 0.244499 0.528823
vt 0.473164 0.528823
vt 0.473164 0.757489
# 24 texture coordinates

vn -1.000000 0.000000 0.000000
vn 0.000000 0.000000 -1.000000
vn 1.000000 0.000000 0.000000
vn 0.000000 0.000000 1.000000
vn 0.000000 -1.000000 0.000000
vn 0.000000 1.000000 0.000000
# 6 normals

usemtl Material.011
f 57/109/36 58/110/36 60/111/36 59/112/36
f 59/113/37 60/114/37 64/115/37 63/116/37
f 63/117/38 64/118/38 62/119/38 61/120/38
f 61/121/39 62/122/39 58/123/39 57/124/39
f 59/125/40 63/126/40 61/127/40 57/128/40
f 64/129/41 60/130/41 58/131/41 62/132/41

g fundament_Cube.002

v -1.030651 0.003603 1.030881
v -1.030651 0.203581 1.030881
v -1.030651 0.003603 -1.029214
v -1.030651 0.203581 -1.029214
v 1.029444 0.003603 1.030881
v 1.029444 0.203581 1.030881
v 1.029444 0.003603 -1.029214
v 1.029444 0.203581 -1.029214
# 8 positions

vt 0.599413 0.225684
vt 0.599413 0.202819
vt 0.834949 0.202819
vt 0.834949 0.225684
vt 0.010000 0.518884
vt 0.032864 0.518884
vt 0.032864 0.754421
vt 0.010000 0.754421
vt 0.112377 0.496003
vt 0.089513 0.496003
vt 0.089513 0.260466
vt 0.112377 0.260466
vt 0.599413 0.257489
vt 0.599413 0.234625
vt 0.834949 0.234625
vt 0.834949 0.257489
vt 0.128297 0.521845
vt 0.128297 0.286308
vt 0.363834 0.286308
vt 0.363834 0.521845
vt 0.370812 0.521845
vt 0.370812 0.286308
vt 0.606349 0.286308
vt 0.606349 0.521845
# 24 texture coordinates

vn -1.000000 0.000000 0.000000
vn 0.000000 0.000000 -1.000000
vn 1.000000 0.000000 0.000000
vn 0.000000 0.000000 1.000000
vn 0.000000 -1.000000 0.000000
vn 0.000000 1.000000 0.000000
# 6 normals

usemtl Material.012
f 65/133/42 66/134/42 68/135/42 67/136/42
f 67/137/43 68/138/43 72/139/43 71/140/43
f 71/141/44 72/142/44 70/143/44 69/144/44
f 69/145/45 70/146/45 66/147/45 65/148/45
f 67/149/46 71/150/46 69/151/46 65/152/46
f 72/153/47 68/154/47 66/155/47 70/156/47

g kaemka_krishi_Cube.003

v -1.097917 1.823188 1.098147
v -1.097917 2.102495 1.098147
v -1.097917 1.823188 -1.096480
v -1.097917 2.102495 -1.096480
v 1.096710 1.823188 1.098147
v 1.096710 2.102495 1.098147
v 1.096710 1.823188 -1.096480
v 1.096710 2.102495 -1.096480
v -0.828901 2.102495 0.829131
v -0.828901 2.102495 -0.827464
v 0.827694 2.102495 -0.827464
v 0.827694 2.102495 0.829131
v -0.828901 1.968667 0.829131
v -0.828901 1.968667 -0.827464
v 0.827694 1.968667 -0.827464
v 0.827694 1.968667 0.829131
# 16 positions

vt 0.041805 0.502982
vt 0.073739 0.502982
vt 0.073739 0.753899
vt 0.041805 0.753899
vt 0.081562 0.502982
vt 0.113496 0.502982
vt 0.113496 0.753899
vt 0.081562 0.753899
vt 0.041934 0.495481
vt 0.010000 0.495481
vt 0.010000 0.244564
vt 0.041934 0.244564
vt 0.081691 0.495481
vt 0.049757 0.495481
vt 0.049757 0.244564
vt 0.081691 0.244564
vt 0.480664 0.739083
vt 0.731582 0.739083
vt 0.731582 0.990000
vt 0.480664 0.990000
vt 0.990000 0.739081
vt 0.990000 0.989998
vt 0.959243 0.959242
vt 0.959243 0.769839
vt 0.574544 0.542179
vt 0.574544 0.731582
vt 0.559243 0.731582
vt 0.559243 0.542179
vt 0.739082 0.990000
vt 0.769839 0.959242
vt 0.739082 0.739083
vt 0.769840 0.769839
vt 0.245992 0.800597
vt 0.435396 0.800597
vt 0.435396 0.990000
vt 0.245992 0.990000
vt 0.198844 0.754007
vt 0.198844 0.564604
vt 0.214145 0.564604
vt 0.214145 0.754007
vt 0.245993 0.777302
vt 0.435396 0.777302
vt 0.435396 0.792603
vt 0.245993 0.792603
vt 0.443347 0.990000
vt 0.443347 0.800597
vt 0.458647 0.800597
vt 0.458647 0.990000
# 48 texture coordinates

vn -1.000000 0.000000 0.000000
vn 0.000000 0.000000 -1.000000
vn 1.000000 0.000000 0.000000
vn 0.000000 0.000000 1.000000
vn 0.000000 -1.000000 0.000000
vn 0.000000 1.000000 0.000000
# 6 normals

usemtl Material.013
f 73/157/48 74/158/48 76/159/48 75/160/48
f 75/161/49 76/162/49 80/163/49 79/164/49
f 79/165/50 80/166/50 78/167/50 77/168/50
f 77/169/51 78/170/51 74/171/51 73/172/51
f 75/173/52 79/174/52 77/175/52 73/176/52
f 76/177/53 74/178/53 81/179/53 82/180/53
f 83/181/51 82/182/51 86/183/51 87/184/51
f 74/178/53 78/185/53 84/186/53 81/179/53
f 80/187/53 76/177/53 82/180/53 83/188/53
f 78/185/53 80/187/53 83/188/53 84/186/53
f 87/189/53 86/190/53 85/191/53 88/192/53
f 84/193/48 83/194/48 87/195/48 88/196/48
f 82/197/50 81/198/50 85/199/50 86/200/50
f 81/201/49 84/202/49 88/203/49 85/204/49

g okno1_Cube.004

v -0.958221 0.615077 0.389013
v -1.055577 0.615077 0.389013
v -0.958221 0.615077 -0.375947
v -1.055576 0.615077 -0.375947
v -0.958221 1.380037 0.389013
v -1.055576 1.380037 0.389013
v -0.958221 1.380037 -0.375947
v -1.055576 1.380037 -0.375947
v -1.055577 0.708845 0.295245
v -1.055576 0.708845 -0.282179
v -1.055576 1.286269 -0.282179
v -1.055576 1.286269 0.295245
v -0.959161 0.708845 0.295245
v -0.959160 0.708845 -0.282179
v -0.959160 1.286269 -0.282179
v -0.959160 1.286269 0.295245
v -0.958221 0.615077 0.053972
v -1.055577 0.615077 0.053972
v -0.958221 1.380037 0.053972
v -1.055576 1.380037 0.053972
v -1.055577 0.708845 0.042342
v -1.055576 1.286269 0.042342
v -0.959161 0.708845 0.042342
v -0.959160 1.286269 0.042342
v -1.055577 0.615077 -0.041841
v -0.958221 1.380037 -0.041841
v -1.055577 0.708845 -0.029982
v -0.959161 0.708845 -0.029982
v -0.958221 0.615077 -0.041841
v -1.055576 1.380037 -0.041841
v -1.055576 1.286269 -0.029982
v -0.959160 1.286269 -0.029982
# 32 positions

vt 0.840483 0.098656
vt 0.840483 0.087525
vt 0.878682 0.087525
vt 0.878682 0.098656
vt 0.926390 0.731582
vt 0.915259 0.731582
vt 0.915259 0.644122
vt 0.926390 0.644122
vt 0.638695 0.087526
vt 0.638695 0.098656
vt 0.600390 0.098656
vt 0.600390 0.087525
vt 0.783261 0.087525
vt 0.783261 0.098656
vt 0.695801 0.098656
vt 0.695801 0.087525
vt 0.086751 0.197053
vt 0.097472 0.198410
vt 0.097461 0.236611
vt 0.086743 0.225887
vt 0.649545 0.107404
vt 0.687850 0.107404
vt 0.677129 0.118125
vt 0.648215 0.118124
vt 0.894165 0.067647
vt 0.960183 0.067647
vt 0.960183 0.078671
vt 0.894165 0.078671
vt 0.687850 0.194864
vt 0.677129 0.184143
vt 0.600390 0.194864
vt 0.600390 0.107404
vt 0.611111 0.118124
vt 0.611111 0.184143
vt 0.638588 0.194864
vt 0.639945 0.184143
vt 0.905155 0.232217
vt 0.896886 0.232217
vt 0.895557 0.221496
vt 0.906511 0.221496
vt 0.926390 0.607333
vt 0.926390 0.636166
vt 0.915366 0.636166
vt 0.915366 0.607333
vt 0.860791 0.146075
vt 0.860791 0.174990
vt 0.849768 0.174990
vt 0.849768 0.146075
vt 0.931269 0.465213
vt 0.931269 0.399195
vt 0.942292 0.399195
vt 0.942292 0.465213
vt 0.097472 0.187456
vt 0.086751 0.188787
vt 0.086742 0.159872
vt 0.097461 0.149148
vt 0.658936 0.174990
vt 0.658936 0.146075
vt 0.669959 0.146075
vt 0.669959 0.174990
vt 0.905155 0.298235
vt 0.896886 0.298235
vt 0.649545 0.194864
vt 0.648215 0.184143
vt 0.638588 0.107404
vt 0.639945 0.118124
vt 0.020730 0.188806
vt 0.010008 0.187479
vt 0.010000 0.149171
vt 0.020724 0.159888
vt 0.649652 0.087526
vt 0.649652 0.098656
vt 0.791222 0.098656
vt 0.791222 0.087525
vt 0.829527 0.087525
vt 0.829527 0.098656
vt 0.687850 0.087525
vt 0.687850 0.098656
vt 0.010009 0.198387
vt 0.020731 0.197034
vt 0.020724 0.225868
vt 0.010000 0.236585
vt 0.811999 0.174990
vt 0.811999 0.146156
vt 0.823022 0.146156
vt 0.823022 0.174990
vt 0.747065 0.078671
vt 0.747065 0.067647
vt 0.813083 0.067647
vt 0.813083 0.078671
vt 0.886633 0.078671
vt 0.820615 0.078671
vt 0.820615 0.067647
vt 0.886633 0.067647
# 94 texture coordinates

vn 0.000000 -1.000000 0.000000
vn 0.000000 0.000000 -1.000000
vn 0.000000 1.000000 0.000000
vn 0.000000 0.000000 1.000000
vn 0.999950 0.010023 0.000001
vn -1.000000 0.000001 -0.000000
vn -0.999950 0.010014 0.000000
vn 0.999950 -0.010014 0.000000
vn 0.999950 0.000000 0.010014
vn 0.999950 -0.000001 -0.010019
# 10 normals

usemtl rama_okna
f 117/205/54 113/206/54 92/207/54 91/208/54
f 91/209/55 92/210/55 96/211/55 95/212/55
f 107/213/56 108/214/56 94/215/56 93/216/56
f 93/217/57 94/218/57 90/219/57 89/220/57
f 116/221/58 117/222/58 91/223/58 102/224/58
f 106/225/59 90/226/59 97/227/59 109/228/59
f 99/229/57 98/230/57 102/231/57 103/232/57
f 90/226/59 94/233/59 100/234/59 97/227/59
f 96/235/59 92/236/59 98/237/59 99/238/59
f 118/239/59 96/235/59 99/238/59 119/240/59
f 120/241/60 112/242/60 107/243/60 114/244/60
f 119/245/54 99/246/54 103/247/54 120/248/54
f 109/249/56 97/250/56 101/251/56 111/252/56
f 97/253/55 100/254/55 104/255/55 101/256/55
f 105/257/58 111/258/58 101/259/58 89/260/58
f 100/261/54 110/262/54 112/263/54 104/264/54
f 120/241/59 116/265/59 111/266/59 112/242/59
f 94/233/59 108/267/59 110/268/59 100/234/59
f 113/269/59 106/225/59 109/228/59 115/270/59
f 112/271/61 107/272/61 93/273/61 104/274/61
f 114/275/56 118/276/56 108/214/56 107/213/56
f 89/277/54 90/278/54 106/279/54 105/280/54
f 95/281/56 96/282/56 118/276/56 114/275/56
f 117/222/58 116/221/58 111/258/58 105/257/58
f 92/236/59 113/269/59 115/270/59 98/237/59
f 114/283/61 120/284/61 103/285/61 95/286/61
f 98/287/56 115/288/56 116/289/56 102/290/56
f 95/286/62 103/285/62 102/224/62 91/223/62
f 108/267/59 118/239/59 119/240/59 110/268/59
f 105/280/54 106/279/54 113/206/54 117/205/54
f 119/240/59 115/270/59 109/228/59 110/268/59
f 116/291/55 115/292/55 119/293/55 120/294/55
f 89/260/63 101/259/63 104/274/63 93/273/63
f 111/295/57 112/296/57 110/297/57 109/298/57

g okno2_Cube.005

v 1.058064 0.615077 0.389013
v 0.960709 0.615077 0.389013
v 1.058064 0.615077 -0.375947
v 0.960709 0.615077 -0.375947
v 1.058064 1.380037 0.389013
v 0.960709 1.380037 0.389013
v 1.058065 1.380037 -0.375947
v 0.960709 1.380037 -0.375947
v 0.960709 0.708845 0.295245
v 0.960709 0.708845 -0.282179
v 0.960709 1.286269 -0.282179
v 0.960709 1.286269 0.295245
v 1.057125 0.708845 0.295245
v 1.057125 0.708845 -0.282179
v 1.057125 1.286269 -0.282179
v 1.057125 1.286269 0.295245
v 1.058064 0.615077 0.053972
v 0.960709 0.615077 0.053972
v 1.058064 1.380037 0.053972
v 0.960709 1.380037 0.053972
v 0.960709 0.708845 0.042342
v 0.960709 1.286269 0.042342
v 1.057125 0.708845 0.042342
v 1.057125 1.286269 0.042342
v 0.960709 0.615077 -0.041841
v 1.058064 1.380037 -0.041841
v 0.960709 0.708845 -0.029982
v 1.057125 0.708845 -0.029982
v 1.058064 0.615077 -0.041841
v 0.960709 1.380037 -0.041841
v 0.960709 1.286269 -0.029982
v 1.057125 1.286269 -0.029982
# 32 positions

vt 0.116547 0.070064
vt 0.105416 0.070064
vt 0.105416 0.031866
vt 0.116547 0.031866
vt 0.010000 0.053732
vt 0.021131 0.053732
vt 0.021131 0.141192
vt 0.010000 0.141192
vt 0.085538 0.102887
vt 0.096668 0.102887
vt 0.096668 0.141192
vt 0.085538 0.141192
vt 0.901344 0.864771
vt 0.912475 0.864771
vt 0.912475 0.952231
vt 0.901344 0.952231
vt 0.735361 0.184144
vt 0.734004 0.194866
vt 0.695806 0.194865
vt 0.706527 0.184144
vt 0.840377 0.107404
vt 0.878682 0.107404
vt 0.867961 0.118125
vt 0.839046 0.118124
vt 0.926390 0.232217
vt 0.926390 0.298235
vt 0.915366 0.298235
vt 0.915366 0.232217
vt 0.878682 0.194864
vt 0.867961 0.184143
vt 0.791222 0.194864
vt 0.791222 0.107404
vt 0.801943 0.118124
vt 0.801943 0.184143
vt 0.829420 0.194864
vt 0.830776 0.184143
vt 0.735361 0.118125
vt 0.743631 0.118125
vt 0.743627 0.184144
vt 0.030862 0.077586
vt 0.059696 0.077586
vt 0.059696 0.088610
vt 0.030862 0.088610
vt 0.930365 0.817059
vt 0.901450 0.817059
vt 0.901450 0.806034
vt 0.930365 0.806034
vt 0.921329 0.952231
vt 0.921329 0.886213
vt 0.932353 0.886213
vt 0.932353 0.952231
vt 0.744958 0.194866
vt 0.772545 0.184144
vt 0.783266 0.194865
vt 0.944280 0.597494
vt 0.915366 0.597494
vt 0.915366 0.586471
vt 0.944280 0.586471
vt 0.734004 0.107404
vt 0.744958 0.107404
vt 0.840377 0.194864
vt 0.839046 0.184143
vt 0.829420 0.107404
vt 0.830776 0.118124
vt 0.783266 0.107405
vt 0.772545 0.118125
vt 0.085538 0.091930
vt 0.096668 0.091930
vt 0.116547 0.119326
vt 0.105416 0.119326
vt 0.105416 0.081021
vt 0.116547 0.081021
vt 0.085538 0.053732
vt 0.096669 0.053732
vt 0.706527 0.118126
vt 0.695806 0.107405
vt 0.931269 0.184929
vt 0.931269 0.156095
vt 0.942292 0.156095
vt 0.942292 0.184929
vt 0.665984 0.067647
vt 0.665984 0.078671
vt 0.599966 0.078671
vt 0.599966 0.067647
vt 0.739534 0.078671
vt 0.673516 0.078671
vt 0.673516 0.067647
vt 0.739534 0.067647
# 88 texture coordinates

vn 0.000000 -1.000000 0.000000
vn 0.000000 0.000000 -1.000000
vn 0.000000 1.000000 0.000000
vn 0.000000 0.000000 1.000000
vn 0.999950 0.010014 0.000000
vn -1.000000 0.000000 0.000000
vn 1.000000 0.000000 0.000000
vn 0.999950 -0.010015 0.000001
vn 0.999950 -0.000001 0.010019
vn 0.999950 0.000000 -0.010014
# 10 normals

usemtl None
f 149/299/64 145/300/64 124/301/64 123/302/64
f 123/303/65 124/304/65 128/305/65 127/306/65
f 139/307/66 140/308/66 126/309/66 125/310/66
f 125/311/67 126/312/67 122/313/67 121/314/67
f 148/315/68 149/316/68 123/317/68 134/318/68
f 138/319/69 122/320/69 129/321/69 141/322/69
f 131/323/67 130/324/67 134/325/67 135/326/67
f 122/320/69 126/327/69 132/328/69 129/321/69
f 128/329/69 124/330/69 130/331/69 131/332/69
f 150/333/69 128/329/69 131/332/69 151/334/69
f 152/335/70 144/336/70 143/337/70 148/315/70
f 151/338/64 131/339/64 135/340/64 152/341/64
f 141/342/66 129/343/66 133/344/66 143/345/66
f 129/346/65 132/347/65 136/348/65 133/349/65
f 137/350/68 143/337/68 133/351/68 121/352/68
f 132/353/64 142/354/64 144/355/64 136/356/64
f 152/335/71 146/357/71 139/358/71 144/336/71
f 126/327/69 140/359/69 142/360/69 132/328/69
f 145/361/69 138/319/69 141/322/69 147/362/69
f 144/336/71 139/358/71 125/363/71 136/364/71
f 146/365/66 150/366/66 140/308/66 139/307/66
f 121/367/64 122/368/64 138/369/64 137/370/64
f 127/371/66 128/372/66 150/366/66 146/365/66
f 149/316/68 148/315/68 143/337/68 137/350/68
f 124/330/69 145/361/69 147/362/69 130/331/69
f 146/357/71 152/335/71 135/373/71 127/374/71
f 130/375/66 147/376/66 148/377/66 134/378/66
f 127/374/72 135/373/72 134/318/72 123/317/72
f 140/359/69 150/333/69 151/334/69 142/360/69
f 137/370/64 138/369/64 145/300/64 149/299/64
f 151/334/69 147/362/69 141/322/69 142/360/69
f 148/379/65 147/380/65 151/381/65 152/382/65
f 121/352/73 133/351/73 136/364/73 125/363/73
f 143/383/67 144/384/67 142/385/67 141/386/67

g steklo2_Plane.001

v -1.007317 0.681567 0.330674
v -1.007317 1.329567 0.330674
v -1.007317 0.681567 -0.317326
v -1.007316 1.329567 -0.317326
# 4 positions

vt 0.906511 0.732120
vt 0.832427 0.732120
vt 0.832427 0.658032
vt 0.906511 0.658032
# 4 texture coordinates

vn -1.000000 0.000001 -0.000001
# 1 normals

usemtl steklo
f 153/387/74 154/388/74 156/389/74 155/390/74

g dvernaya_korobka_Cube.006

v -0.310400 0.195589 1.049013
v -0.310400 0.195589 0.951657
v 0.301568 0.195589 1.049013
v 0.301568 0.195589 0.951657
v -0.310400 1.379526 1.049013
v -0.310400 1.379526 0.951657
v 0.301569 1.379525 1.049013
v 0.301569 1.379525 0.951657
v -0.235385 0.195618 0.951657
v 0.226554 0.195618 0.951657
v 0.226554 1.299496 0.951657
v -0.235385 1.299496 0.951657
v -0.235385 0.195618 1.048073
v 0.226553 0.195618 1.048073
v 0.226554 1.299496 1.048073
v -0.235385 1.299496 1.048073
# 16 positions

vt 0.914463 0.785254
vt 0.914463 0.796385
vt 0.779101 0.796385
vt 0.779101 0.785254
vt 0.182303 0.627427
vt 0.129486 0.627427
vt 0.120909 0.618276
vt 0.190880 0.618276
vt 0.233829 0.753638
vt 0.222698 0.753638
vt 0.222698 0.618276
vt 0.233829 0.618276
vt 0.594422 0.605372
vt 0.594422 0.731582
vt 0.583398 0.731582
vt 0.583398 0.605372
vt 0.550690 0.596220
vt 0.550690 0.731582
vt 0.542113 0.722431
vt 0.542113 0.596220
vt 0.480722 0.731582
vt 0.480724 0.596220
vt 0.489301 0.596220
vt 0.489298 0.722431
vt 0.546714 0.533654
vt 0.546714 0.586471
vt 0.535690 0.586471
vt 0.535690 0.533654
vt 0.116439 0.127282
vt 0.116439 0.253492
vt 0.105416 0.253492
vt 0.105416 0.127282
vt 0.233829 0.610721
vt 0.222698 0.610721
vt 0.222698 0.540751
vt 0.233829 0.540751
vt 0.129479 0.753636
vt 0.120903 0.753638
vt 0.190893 0.753638
vt 0.182316 0.753636
# 40 texture coordinates

vn 1.000000 -0.000000 0.000000
vn -0.000000 -0.011743 0.999931
vn -1.000000 0.000000 -0.000003
vn 0.000000 0.000000 -1.000000
vn 0.000000 -1.000000 0.000000
vn 0.000002 1.000000 0.000000
vn -0.012528 0.000000 0.999922
vn 0.012528 0.000000 0.999922
# 8 normals

usemtl None
f 159/391/75 160/392/75 164/393/75 163/394/75
f 172/395/76 171/396/76 163/397/76 161/398/76
f 161/399/77 162/400/77 158/401/77 157/402/77
f 167/403/77 166/404/77 170/405/77 171/406/77
f 158/407/78 162/408/78 168/409/78 165/410/78
f 164/411/78 160/412/78 166/413/78 167/414/78
f 168/415/79 167/416/79 171/417/79 172/418/79
f 165/419/75 168/420/75 172/421/75 169/422/75
f 162/408/78 164/411/78 167/414/78 168/409/78
f 163/423/80 164/424/80 162/425/80 161/426/80
f 163/397/81 171/396/81 170/427/81 159/428/81
f 157/429/82 169/430/82 172/395/82 161/398/82

g stupenka_Cube.007

v -0.332622 0.001631 1.212852
v -0.332622 0.211623 1.212852
v -0.332622 0.001631 0.888815
v -0.332622 0.211623 0.888815
v 0.321415 0.001631 1.212852
v 0.321415 0.211623 1.212852
v 0.321415 0.001631 0.888815
v 0.321415 0.211623 0.888815
# 8 positions

vt 0.924402 0.087525
vt 0.924402 0.111534
vt 0.887356 0.111534
vt 0.887356 0.087525
vt 0.196856 0.532799
vt 0.196856 0.556808
vt 0.122080 0.556808
vt 0.122080 0.532799
vt 0.606349 0.597677
vt 0.582343 0.597677
vt 0.582343 0.560629
vt 0.606349 0.560629
vt 0.498851 0.638916
vt 0.522860 0.638916
vt 0.522860 0.713692
vt 0.498851 0.713692
vt 0.885368 0.464453
vt 0.885368 0.389675
vt 0.922414 0.389675
vt 0.922414 0.464453
vt 0.922414 0.306949
vt 0.922414 0.381724
vt 0.885366 0.381724
vt 0.885366 0.306949
# 24 texture coordinates

vn -1.000000 0.000000 0.000000
vn 0.000000 0.000000 -1.000000
vn 1.000000 0.000000 0.000000
vn 0.000000 0.000000 1.000000
vn 0.000000 -1.000000 0.000000
vn 0.000000 1.000000 0.000000
# 6 normals

usemtl Material.014
f 173/431/83 174/432/83 176/433/83 175/434/83
f 175/435/84 176/436/84 180/437/84 179/438/84
f 179/439/85 180/440/85 178/441/85 177/442/85
f 177/443/86 178/444/86 174/445/86 173/446/86
f 175/447/87 179/448/87 177/449/87 173/450/87
f 180/451/88 176/452/88 174/453/88 178/454/88

g konder1_Cube.009

v 0.194728 1.779509 0.506809
v 0.194728 2.168309 0.506809
v 0.194728 1.779509 0.118009
v 0.194728 2.168309 0.118009
v 0.583528 1.779509 0.506809
v 0.583528 2.168309 0.506809
v 0.583528 1.779509 0.118009
v 0.583528 2.168309 0.118009
v 0.253048 2.168309 0.448489
v 0.253048 2.168309 0.176329
v 0.525208 2.168309 0.176329
v 0.525208 2.168309 0.448489
v 0.253048 2.068309 0.448489
v 0.253048 2.068309 0.176329
v 0.525208 2.068309 0.176329
v 0.525208 2.068309 0.448489
v 0.307480 2.068309 0.394057
v 0.307480 2.068309 0.230761
v 0.470776 2.068309 0.230761
v 0.470776 2.068309 0.394057
v 0.307480 2.168309 0.394057
v 0.307480 2.168309 0.230761
v 0.470776 2.168309 0.230761
v 0.470776 2.168309 0.394057
# 24 positions

vt 0.077586 0.217455
vt 0.033133 0.217455
vt 0.033133 0.173002
vt 0.077586 0.173002
vt 0.832241 0.469189
vt 0.832241 0.424735
vt 0.876694 0.424735
vt 0.876694 0.469189
vt 0.832241 0.417505
vt 0.832241 0.373052
vt 0.876694 0.373052
vt 0.876694 0.417505
vt 0.832241 0.365821
vt 0.832241 0.321368
vt 0.876694 0.321368
vt 0.876694 0.365821
vt 0.832241 0.269685
vt 0.876694 0.269685
vt 0.876694 0.314138
vt 0.832241 0.314138
vt 0.886633 0.262454
vt 0.842180 0.262454
vt 0.848848 0.255789
vt 0.879965 0.255789
vt 0.952231 0.878188
vt 0.921115 0.878188
vt 0.921115 0.866755
vt 0.952231 0.866755
vt 0.842180 0.218001
vt 0.848848 0.224673
vt 0.886633 0.218001
vt 0.879965 0.224673
vt 0.499695 0.629514
vt 0.499695 0.598397
vt 0.505921 0.604621
vt 0.505921 0.623291
vt 0.174990 0.609636
vt 0.174990 0.578519
vt 0.186423 0.578519
vt 0.186423 0.609636
vt 0.779979 0.805132
vt 0.811095 0.805132
vt 0.811095 0.816565
vt 0.779979 0.816565
vt 0.620264 0.174301
vt 0.620264 0.143185
vt 0.631697 0.143185
vt 0.631697 0.174301
vt 0.582989 0.552677
vt 0.582989 0.534006
vt 0.594422 0.534006
vt 0.594422 0.552677
vt 0.530811 0.598397
vt 0.530811 0.629514
vt 0.524585 0.623291
vt 0.524585 0.604621
vt 0.157099 0.636166
vt 0.157099 0.654836
vt 0.138428 0.654836
vt 0.138428 0.636166
vt 0.818266 0.805132
vt 0.836937 0.805132
vt 0.836937 0.816565
vt 0.818266 0.816565
vt 0.715680 0.175771
vt 0.715680 0.157099
vt 0.727113 0.157099
vt 0.727113 0.175771
vt 0.753448 0.175771
vt 0.753448 0.157099
vt 0.764882 0.157099
vt 0.764882 0.175771
# 72 texture coordinates

vn -1.000000 0.000000 0.000000
vn 0.000000 0.000000 -1.000000
vn 1.000000 0.000000 0.000000
vn 0.000000 0.000000 1.000000
vn 0.000000 -1.000000 0.000000
vn 0.000000 1.000000 0.000000
# 6 normals

usemtl None
f 181/455/89 182/456/89 184/457/89 183/458/89
f 183/459/90 184/460/90 188/461/90 187/462/90
f 187/463/91 188/464/91 186/465/91 185/466/91
f 185/467/92 186/468/92 182/469/92 181/470/92
f 183/471/93 187/472/93 185/473/93 181/474/93
f 184/475/94 182/476/94 189/477/94 190/478/94
f 189/479/90 192/480/90 196/481/90 193/482/90
f 182/476/94 186/483/94 192/484/94 189/477/94
f 188/485/94 184/475/94 190/478/94 191/486/94
f 186/483/94 188/485/94 191/486/94 192/484/94
f 196/487/94 195/488/94 199/489/94 200/490/94
f 191/491/92 190/492/92 194/493/92 195/494/92
f 192/495/89 191/496/89 195/497/89 196/498/89
f 190/499/91 189/500/91 193/501/91 194/502/91
f 197/503/92 200/504/92 204/505/92 201/506/92
f 194/507/94 193/508/94 197/509/94 198/510/94
f 193/508/94 196/487/94 200/490/94 197/509/94
f 195/488/94 194/507/94 198/510/94 199/489/94
f 203/511/94 202/512/94 201/513/94 204/514/94
f 199/515/90 198/516/90 202/517/90 203/518/90
f 200/519/91 199/520/91 203/521/91 204/522/91
f 198/523/89 197/524/89 201/525/89 202/526/89

g konder2_Cube.010

v 0.194728 1.779509 -0.193191
v 0.194728 2.168309 -0.193191
v 0.194728 1.779509 -0.581991
v 0.194728 2.168309 -0.581991
v 0.583528 1.779509 -0.193191
v 0.583528 2.168309 -0.193191
v 0.583528 1.779509 -0.581991
v 0.583528 2.168309 -0.581991
v 0.253048 2.168309 -0.251511
v 0.253048 2.168309 -0.523671
v 0.525208 2.168309 -0.523671
v 0.525208 2.168309 -0.251511
v 0.253048 2.068309 -0.251511
v 0.253048 2.068309 -0.523671
v 0.525208 2.068309 -0.523671
v 0.525208 2.068309 -0.251511
v 0.307480 2.068309 -0.305943
v 0.307480 2.068309 -0.469239
v 0.470776 2.068309 -0.469239
v 0.470776 2.068309 -0.305943
v 0.307480 2.168309 -0.305943
v 0.307480 2.168309 -0.469239
v 0.470776 2.168309 -0.469239
v 0.470776 2.168309 -0.305943
# 24 positions

vt 0.848144 0.952231
vt 0.848144 0.907778
vt 0.892596 0.907778
vt 0.892596 0.952231
vt 0.848144 0.900548
vt 0.848144 0.856094
vt 0.892596 0.856094
vt 0.892596 0.900548
vt 0.848144 0.848864
vt 0.848144 0.804411
vt 0.892596 0.804411
vt 0.892596 0.848864
vt 0.077586 0.141917
vt 0.033133 0.141917
vt 0.033133 0.097464
vt 0.077586 0.097464
vt 0.883925 0.524127
vt 0.928377 0.524127
vt 0.928377 0.568580
vt 0.883925 0.568580
vt 0.928377 0.516897
vt 0.883925 0.516897
vt 0.890593 0.510231
vt 0.921709 0.510231
vt 0.061684 0.069141
vt 0.030567 0.069141
vt 0.030567 0.057708
vt 0.061684 0.057708
vt 0.883925 0.472443
vt 0.890593 0.479115
vt 0.928377 0.472443
vt 0.921709 0.479115
vt 0.932353 0.825010
vt 0.932353 0.856127
vt 0.926127 0.849904
vt 0.926127 0.831234
vt 0.942292 0.360547
vt 0.942292 0.391663
vt 0.930859 0.391663
vt 0.930859 0.360547
vt 0.942292 0.320790
vt 0.942292 0.351907
vt 0.930859 0.351907
vt 0.930859 0.320790
vt 0.942292 0.193569
vt 0.942292 0.224686
vt 0.930859 0.224686
vt 0.930859 0.193569
vt 0.727113 0.131258
vt 0.727113 0.149929
vt 0.715680 0.149929
vt 0.715680 0.131258
vt 0.901236 0.856127
vt 0.901236 0.825010
vt 0.907462 0.831234
vt 0.907462 0.849904
vt 0.442566 0.793984
vt 0.442566 0.775314
vt 0.461237 0.775314
vt 0.461237 0.793984
vt 0.753448 0.149929
vt 0.753448 0.131258
vt 0.764882 0.131258
vt 0.764882 0.149929
vt 0.934341 0.778509
vt 0.934341 0.797181
vt 0.922908 0.797181
vt 0.922908 0.778509
vt 0.942292 0.128489
vt 0.942292 0.147160
vt 0.930859 0.147160
vt 0.930859 0.128489
# 72 texture coordinates

vn -1.000000 0.000000 0.000000
vn 0.000000 0.000000 -1.000000
vn 1.000000 0.000000 0.000000
vn 0.000000 0.000000 1.000000
vn 0.000000 -1.000000 0.000000
vn 0.000000 1.000000 0.000000
# 6 normals

usemtl None
f 205/527/95 206/528/95 208/529/95 207/530/95
f 207/531/96 208/532/96 212/533/96 211/534/96
f 211/535/97 212/536/97 210/537/97 209/538/97
f 209/539/98 210/540/98 206/541/98 205/542/98
f 207/543/99 211/544/99 209/545/99 205/546/99
f 208/547/100 206/548/100 213/549/100 214/550/100
f 213/551/96 216/552/96 220/553/96 217/554/96
f 206/548/100 210/555/100 216/556/100 213/549/100
f 212/557/100 208/547/100 214/550/100 215/558/100
f 210/555/100 212/557/100 215/558/100 216/556/100
f 220/559/100 219/560/100 223/561/100 224/562/100
f 215/563/98 214/564/98 218/565/98 219/566/98
f 216/567/95 215/568/95 219/569/95 220/570/95
f 214/571/97 213/572/97 217/573/97 218/574/97
f 221/575/98 224/576/98 228/577/98 225/578/98
f 218/579/100 217/580/100 221/581/100 222/582/100
f 217/580/100 220/559/100 224/562/100 221/581/100
f 219/560/100 218/579/100 222/582/100 223/561/100
f 227/583/100 226/584/100 225/585/100 228/586/100
f 223/587/96 222/588/96 226/589/96 227/590/96
f 224/591/97 223/592/97 227/593/97 228/594/97
f 222/595/95 221/596/95 225/597/95 226/598/95

# 199 faces
